M48
; DRILL file KiCad 10.0.3 date 2026-06-15T02:55:36
; FORMAT={-:-/ absolute / metric / decimal}
; #@! TF.CreationDate,2026-06-15T02:55:36-07:00
; #@! TF.GenerationSoftware,Kicad,Pcbnew,10.0.3
; #@! TF.FileFunction,NonPlated,1,2,NPTH
FMAT,2
METRIC
; #@! TA.AperFunction,NonPlated,NPTH,ComponentDrill
T1C1.700
; #@! TA.AperFunction,NonPlated,NPTH,ComponentDrill
T2C1.850
; #@! TA.AperFunction,NonPlated,NPTH,ComponentDrill
T3C2.100
; #@! TA.AperFunction,NonPlated,NPTH,ComponentDrill
T4C2.200
; #@! TA.AperFunction,NonPlated,NPTH,ComponentDrill
T5C4.000
%
G90
G05
T1
X24.38Y-70.08
X34.54Y-70.08
X43.43Y-70.08
X53.59Y-70.08
X62.48Y-70.08
X72.64Y-70.08
X81.53Y-70.08
X91.69Y-70.08
T2
X38.9Y-28.885
X38.9Y-33.735
T3
X14.5Y-85.0
X15.5Y-15.5
X104.5Y-15.0
X104.5Y-85.0
T4
X35.87Y-28.585
X35.87Y-34.035
T5
X29.46Y-70.08
X48.51Y-70.08
X67.56Y-70.58
X86.11Y-71.08
M30
