%TF.GenerationSoftware,KiCad,Pcbnew,10.0.3*%
%TF.CreationDate,2026-06-19T14:02:30-07:00*%
%TF.ProjectId,macropad,6d616372-6f70-4616-942e-6b696361645f,rev?*%
%TF.SameCoordinates,Original*%
%TF.FileFunction,Soldermask,Bot*%
%TF.FilePolarity,Negative*%
%FSLAX46Y46*%
G04 Gerber Fmt 4.6, Leading zero omitted, Abs format (unit mm)*
G04 Created by KiCad (PCBNEW 10.0.3) date 2026-06-19 14:02:30*
%MOMM*%
%LPD*%
G01*
G04 APERTURE LIST*
G04 Aperture macros list*
%AMRoundRect*
0 Rectangle with rounded corners*
0 $1 Rounding radius*
0 $2 $3 $4 $5 $6 $7 $8 $9 X,Y pos of 4 corners*
0 Add a 4 corners polygon primitive as box body*
4,1,4,$2,$3,$4,$5,$6,$7,$8,$9,$2,$3,0*
0 Add four circle primitives for the rounded corners*
1,1,$1+$1,$2,$3*
1,1,$1+$1,$4,$5*
1,1,$1+$1,$6,$7*
1,1,$1+$1,$8,$9*
0 Add four rect primitives between the rounded corners*
20,1,$1+$1,$2,$3,$4,$5,0*
20,1,$1+$1,$4,$5,$6,$7,0*
20,1,$1+$1,$6,$7,$8,$9,0*
20,1,$1+$1,$8,$9,$2,$3,0*%
%AMFreePoly0*
4,1,37,0.800000,0.796148,0.878414,0.796148,1.032228,0.765552,1.177117,0.705537,1.307515,0.618408,1.418408,0.507515,1.505537,0.377117,1.565552,0.232228,1.596148,0.078414,1.596148,-0.078414,1.565552,-0.232228,1.505537,-0.377117,1.418408,-0.507515,1.307515,-0.618408,1.177117,-0.705537,1.032228,-0.765552,0.878414,-0.796148,0.800000,-0.796148,0.800000,-0.800000,-1.400000,-0.800000,
-1.403843,-0.796157,-1.439018,-0.796157,-1.511114,-0.766294,-1.566294,-0.711114,-1.596157,-0.639018,-1.596157,-0.603843,-1.600000,-0.600000,-1.600000,0.600000,-1.596157,0.603843,-1.596157,0.639018,-1.566294,0.711114,-1.511114,0.766294,-1.439018,0.796157,-1.403843,0.796157,-1.400000,0.800000,0.800000,0.800000,0.800000,0.796148,0.800000,0.796148,$1*%
%AMFreePoly1*
4,1,37,0.000000,0.796148,0.078414,0.796148,0.232228,0.765552,0.377117,0.705537,0.507515,0.618408,0.618408,0.507515,0.705537,0.377117,0.765552,0.232228,0.796148,0.078414,0.796148,-0.078414,0.765552,-0.232228,0.705537,-0.377117,0.618408,-0.507515,0.507515,-0.618408,0.377117,-0.705537,0.232228,-0.765552,0.078414,-0.796148,0.000000,-0.796148,0.000000,-0.800000,-0.600000,-0.800000,
-0.603843,-0.796157,-0.639018,-0.796157,-0.711114,-0.766294,-0.766294,-0.711114,-0.796157,-0.639018,-0.796157,-0.603843,-0.800000,-0.600000,-0.800000,0.600000,-0.796157,0.603843,-0.796157,0.639018,-0.766294,0.711114,-0.711114,0.766294,-0.639018,0.796157,-0.603843,0.796157,-0.600000,0.800000,0.000000,0.800000,0.000000,0.796148,0.000000,0.796148,$1*%
%AMFreePoly2*
4,1,37,0.603843,0.796157,0.639018,0.796157,0.711114,0.766294,0.766294,0.711114,0.796157,0.639018,0.796157,0.603843,0.800000,0.600000,0.800000,-0.600000,0.796157,-0.603843,0.796157,-0.639018,0.766294,-0.711114,0.711114,-0.766294,0.639018,-0.796157,0.603843,-0.796157,0.600000,-0.800000,0.000000,-0.800000,0.000000,-0.796148,-0.078414,-0.796148,-0.232228,-0.765552,-0.377117,-0.705537,
-0.507515,-0.618408,-0.618408,-0.507515,-0.705537,-0.377117,-0.765552,-0.232228,-0.796148,-0.078414,-0.796148,0.078414,-0.765552,0.232228,-0.705537,0.377117,-0.618408,0.507515,-0.507515,0.618408,-0.377117,0.705537,-0.232228,0.765552,-0.078414,0.796148,0.000000,0.796148,0.000000,0.800000,0.600000,0.800000,0.603843,0.796157,0.603843,0.796157,$1*%
%AMFreePoly3*
4,1,37,1.403843,0.796157,1.439018,0.796157,1.511114,0.766294,1.566294,0.711114,1.596157,0.639018,1.596157,0.603843,1.600000,0.600000,1.600000,-0.600000,1.596157,-0.603843,1.596157,-0.639018,1.566294,-0.711114,1.511114,-0.766294,1.439018,-0.796157,1.403843,-0.796157,1.400000,-0.800000,-0.800000,-0.800000,-0.800000,-0.796148,-0.878414,-0.796148,-1.032228,-0.765552,-1.177117,-0.705537,
-1.307515,-0.618408,-1.418408,-0.507515,-1.505537,-0.377117,-1.565552,-0.232228,-1.596148,-0.078414,-1.596148,0.078414,-1.565552,0.232228,-1.505537,0.377117,-1.418408,0.507515,-1.307515,0.618408,-1.177117,0.705537,-1.032228,0.765552,-0.878414,0.796148,-0.800000,0.796148,-0.800000,0.800000,1.400000,0.800000,1.403843,0.796157,1.403843,0.796157,$1*%
G04 Aperture macros list end*
%ADD10C,2.200000*%
%ADD11C,1.700000*%
%ADD12C,4.000000*%
%ADD13RoundRect,0.800000X0.000010X-0.800000X0.000010X0.800000X-0.000010X0.800000X-0.000010X-0.800000X0*%
%ADD14C,1.600000*%
%ADD15FreePoly0,90.000000*%
%ADD16FreePoly1,90.000000*%
%ADD17FreePoly2,90.000000*%
%ADD18FreePoly3,90.000000*%
%ADD19RoundRect,0.200000X0.600000X-0.600000X0.600000X0.600000X-0.600000X0.600000X-0.600000X-0.600000X0*%
%ADD20C,1.850000*%
G04 APERTURE END LIST*
D10*
%TO.C,REF\u002A\u002A*%
X162000000Y-70500000D03*
%TD*%
%TO.C,REF\u002A\u002A*%
X162000000Y-140500000D03*
%TD*%
%TO.C,SW4*%
X83150000Y-123040000D03*
X89500000Y-120500000D03*
D11*
X92040000Y-125580000D03*
D12*
X86960000Y-125580000D03*
D11*
X81880000Y-125580000D03*
%TD*%
D10*
%TO.C,REF\u002A\u002A*%
X72000000Y-140500000D03*
%TD*%
%TO.C,REF\u002A\u002A*%
X72000000Y-70500000D03*
%TD*%
D11*
%TO.C,SW1*%
X139030000Y-125580000D03*
D12*
X143610000Y-126580000D03*
D11*
X149190000Y-125580000D03*
D10*
X146650000Y-120500000D03*
X140300000Y-123040000D03*
%TD*%
D11*
%TO.C,SW3*%
X100930000Y-125580000D03*
D12*
X106010000Y-125580000D03*
D11*
X111090000Y-125580000D03*
D10*
X108550000Y-120500000D03*
X102200000Y-123040000D03*
%TD*%
D13*
%TO.C,A1*%
X162429485Y-77105277D03*
D14*
X162429485Y-77905277D03*
D13*
X159889485Y-77105277D03*
D14*
X159889485Y-77905277D03*
D15*
X157349485Y-77105277D03*
D16*
X157349485Y-77905277D03*
D13*
X154809485Y-77105277D03*
D14*
X154809485Y-77905277D03*
D13*
X152269485Y-77105277D03*
D14*
X152269485Y-77905277D03*
D13*
X149729485Y-77105277D03*
D14*
X149729485Y-77905277D03*
D13*
X147189485Y-77105277D03*
D14*
X147189485Y-77905277D03*
D15*
X144649485Y-77105277D03*
D16*
X144649485Y-77905277D03*
D13*
X142109485Y-77105277D03*
D14*
X142109485Y-77905277D03*
D13*
X139569485Y-77105277D03*
D14*
X139569485Y-77905277D03*
D13*
X137029485Y-77105277D03*
D14*
X137029485Y-77905277D03*
D13*
X134489485Y-77105277D03*
D14*
X134489485Y-77905277D03*
D15*
X131949485Y-77105277D03*
D16*
X131949485Y-77905277D03*
D13*
X129409485Y-77105277D03*
D14*
X129409485Y-77905277D03*
D13*
X126869485Y-77105277D03*
D14*
X126869485Y-77905277D03*
D13*
X124329485Y-77105277D03*
D14*
X124329485Y-77905277D03*
D13*
X121789485Y-77105277D03*
D14*
X121789485Y-77905277D03*
D15*
X119249485Y-77105277D03*
D16*
X119249485Y-77905277D03*
D13*
X116709485Y-77105277D03*
D14*
X116709485Y-77905277D03*
D13*
X114169485Y-77105277D03*
D14*
X114169485Y-77905277D03*
X114169485Y-95685277D03*
D13*
X114169485Y-96485277D03*
D14*
X116709485Y-95685277D03*
D13*
X116709485Y-96485277D03*
D17*
X119249485Y-95685277D03*
D18*
X119249485Y-96485277D03*
D14*
X121789485Y-95685277D03*
D13*
X121789485Y-96485277D03*
D14*
X124329485Y-95685277D03*
D13*
X124329485Y-96485277D03*
D14*
X126869485Y-95685277D03*
D13*
X126869485Y-96485277D03*
D14*
X129409485Y-95685277D03*
D13*
X129409485Y-96485277D03*
D17*
X131949485Y-95685277D03*
D18*
X131949485Y-96485277D03*
D14*
X134489485Y-95685277D03*
D13*
X134489485Y-96485277D03*
D14*
X137029485Y-95685277D03*
D13*
X137029485Y-96485277D03*
D14*
X139569485Y-95685277D03*
D13*
X139569485Y-96485277D03*
D14*
X142109485Y-95685277D03*
D13*
X142109485Y-96485277D03*
D17*
X144649485Y-95685277D03*
D18*
X144649485Y-96485277D03*
D14*
X147189485Y-95685277D03*
D13*
X147189485Y-96485277D03*
D14*
X149729485Y-95685277D03*
D13*
X149729485Y-96485277D03*
D14*
X152269485Y-95685277D03*
D13*
X152269485Y-96485277D03*
D14*
X154809485Y-95685277D03*
D13*
X154809485Y-96485277D03*
D17*
X157349485Y-95685277D03*
D18*
X157349485Y-96485277D03*
D14*
X159889485Y-95685277D03*
D13*
X159889485Y-96485277D03*
D19*
X162429485Y-95685277D03*
D15*
X162429485Y-96485277D03*
D10*
X162299485Y-84070277D03*
D20*
X159269485Y-84370277D03*
X159269485Y-89220277D03*
D10*
X162299485Y-89520277D03*
%TD*%
%TO.C,SW2*%
X121250000Y-123040000D03*
X127600000Y-120500000D03*
D11*
X130140000Y-125580000D03*
D12*
X125060000Y-126080000D03*
D11*
X119980000Y-125580000D03*
%TD*%
M02*
