%TF.GenerationSoftware,KiCad,Pcbnew,10.0.3*%
%TF.CreationDate,2026-06-15T02:55:45-07:00*%
%TF.ProjectId,macropad,6d616372-6f70-4616-942e-6b696361645f,rev?*%
%TF.SameCoordinates,Original*%
%TF.FileFunction,Legend,Top*%
%TF.FilePolarity,Positive*%
%FSLAX46Y46*%
G04 Gerber Fmt 4.6, Leading zero omitted, Abs format (unit mm)*
G04 Created by KiCad (PCBNEW 10.0.3) date 2026-06-15 02:55:45*
%MOMM*%
%LPD*%
G01*
G04 APERTURE LIST*
%ADD10C,0.100000*%
%ADD11C,0.150000*%
%ADD12C,0.120000*%
G04 APERTURE END LIST*
D10*
X80500000Y-53500000D02*
X84000000Y-51000000D01*
X86500000Y-53500000D01*
X88500000Y-54000000D01*
X90500000Y-53500000D01*
X91792845Y-52230045D01*
X92500000Y-51500000D01*
X92500000Y-50500000D01*
X90219564Y-48163600D01*
X90001382Y-48047864D01*
X86500000Y-48000000D01*
X84000000Y-50500000D01*
X80500000Y-48000000D01*
X80500000Y-49000000D01*
X80500000Y-53500000D01*
G36*
X90001382Y-48047864D02*
G01*
X90219564Y-48163600D01*
X92500000Y-50500000D01*
X92500000Y-51500000D01*
X91792845Y-52230045D01*
X90500000Y-53500000D01*
X88500000Y-54000000D01*
X86500000Y-53500000D01*
X84000000Y-51000000D01*
X80500000Y-53500000D01*
X80500000Y-49000000D01*
X80500000Y-48000000D01*
X84000000Y-50500000D01*
X86500000Y-48000000D01*
X90001382Y-48047864D01*
G37*
X28000000Y-16500000D02*
X24500000Y-19000000D01*
X22000000Y-16500000D01*
X20000000Y-16000000D01*
X18000000Y-16500000D01*
X16707155Y-17769955D01*
X16000000Y-18500000D01*
X16000000Y-19500000D01*
X18280436Y-21836400D01*
X18498618Y-21952136D01*
X22000000Y-22000000D01*
X24500000Y-19500000D01*
X28000000Y-22000000D01*
X28000000Y-21000000D01*
X28000000Y-16500000D01*
G36*
X22000000Y-16500000D02*
G01*
X24500000Y-19000000D01*
X28000000Y-16500000D01*
X28000000Y-21000000D01*
X28000000Y-22000000D01*
X24500000Y-19500000D01*
X22000000Y-22000000D01*
X18498618Y-21952136D01*
X18280436Y-21836400D01*
X16000000Y-19500000D01*
X16000000Y-18500000D01*
X16707155Y-17769955D01*
X18000000Y-16500000D01*
X20000000Y-16000000D01*
X22000000Y-16500000D01*
G37*
X101000000Y-40500000D02*
X98500000Y-37000000D01*
X101000000Y-34500000D01*
X101500000Y-32500000D01*
X101000000Y-30500000D01*
X99730045Y-29207155D01*
X99000000Y-28500000D01*
X98000000Y-28500000D01*
X95663600Y-30780436D01*
X95547864Y-30998618D01*
X95500000Y-34500000D01*
X98000000Y-37000000D01*
X95500000Y-40500000D01*
X96500000Y-40500000D01*
X101000000Y-40500000D01*
G36*
X99730045Y-29207155D02*
G01*
X101000000Y-30500000D01*
X101500000Y-32500000D01*
X101000000Y-34500000D01*
X98500000Y-37000000D01*
X101000000Y-40500000D01*
X96500000Y-40500000D01*
X95500000Y-40500000D01*
X98000000Y-37000000D01*
X95500000Y-34500000D01*
X95547864Y-30998618D01*
X95663600Y-30780436D01*
X98000000Y-28500000D01*
X99000000Y-28500000D01*
X99730045Y-29207155D01*
G37*
D11*
X14166666Y-12904819D02*
X13833333Y-12428628D01*
X13595238Y-12904819D02*
X13595238Y-11904819D01*
X13595238Y-11904819D02*
X13976190Y-11904819D01*
X13976190Y-11904819D02*
X14071428Y-11952438D01*
X14071428Y-11952438D02*
X14119047Y-12000057D01*
X14119047Y-12000057D02*
X14166666Y-12095295D01*
X14166666Y-12095295D02*
X14166666Y-12238152D01*
X14166666Y-12238152D02*
X14119047Y-12333390D01*
X14119047Y-12333390D02*
X14071428Y-12381009D01*
X14071428Y-12381009D02*
X13976190Y-12428628D01*
X13976190Y-12428628D02*
X13595238Y-12428628D01*
X14595238Y-12381009D02*
X14928571Y-12381009D01*
X15071428Y-12904819D02*
X14595238Y-12904819D01*
X14595238Y-12904819D02*
X14595238Y-11904819D01*
X14595238Y-11904819D02*
X15071428Y-11904819D01*
X15833333Y-12381009D02*
X15500000Y-12381009D01*
X15500000Y-12904819D02*
X15500000Y-11904819D01*
X15500000Y-11904819D02*
X15976190Y-11904819D01*
X16500000Y-11904819D02*
X16500000Y-12142914D01*
X16261905Y-12047676D02*
X16500000Y-12142914D01*
X16500000Y-12142914D02*
X16738095Y-12047676D01*
X16357143Y-12333390D02*
X16500000Y-12142914D01*
X16500000Y-12142914D02*
X16642857Y-12333390D01*
X17261905Y-11904819D02*
X17261905Y-12142914D01*
X17023810Y-12047676D02*
X17261905Y-12142914D01*
X17261905Y-12142914D02*
X17500000Y-12047676D01*
X17119048Y-12333390D02*
X17261905Y-12142914D01*
X17261905Y-12142914D02*
X17404762Y-12333390D01*
X13166666Y-82404819D02*
X12833333Y-81928628D01*
X12595238Y-82404819D02*
X12595238Y-81404819D01*
X12595238Y-81404819D02*
X12976190Y-81404819D01*
X12976190Y-81404819D02*
X13071428Y-81452438D01*
X13071428Y-81452438D02*
X13119047Y-81500057D01*
X13119047Y-81500057D02*
X13166666Y-81595295D01*
X13166666Y-81595295D02*
X13166666Y-81738152D01*
X13166666Y-81738152D02*
X13119047Y-81833390D01*
X13119047Y-81833390D02*
X13071428Y-81881009D01*
X13071428Y-81881009D02*
X12976190Y-81928628D01*
X12976190Y-81928628D02*
X12595238Y-81928628D01*
X13595238Y-81881009D02*
X13928571Y-81881009D01*
X14071428Y-82404819D02*
X13595238Y-82404819D01*
X13595238Y-82404819D02*
X13595238Y-81404819D01*
X13595238Y-81404819D02*
X14071428Y-81404819D01*
X14833333Y-81881009D02*
X14500000Y-81881009D01*
X14500000Y-82404819D02*
X14500000Y-81404819D01*
X14500000Y-81404819D02*
X14976190Y-81404819D01*
X15500000Y-81404819D02*
X15500000Y-81642914D01*
X15261905Y-81547676D02*
X15500000Y-81642914D01*
X15500000Y-81642914D02*
X15738095Y-81547676D01*
X15357143Y-81833390D02*
X15500000Y-81642914D01*
X15500000Y-81642914D02*
X15642857Y-81833390D01*
X16261905Y-81404819D02*
X16261905Y-81642914D01*
X16023810Y-81547676D02*
X16261905Y-81642914D01*
X16261905Y-81642914D02*
X16500000Y-81547676D01*
X16119048Y-81833390D02*
X16261905Y-81642914D01*
X16261905Y-81642914D02*
X16404762Y-81833390D01*
X103166666Y-82404819D02*
X102833333Y-81928628D01*
X102595238Y-82404819D02*
X102595238Y-81404819D01*
X102595238Y-81404819D02*
X102976190Y-81404819D01*
X102976190Y-81404819D02*
X103071428Y-81452438D01*
X103071428Y-81452438D02*
X103119047Y-81500057D01*
X103119047Y-81500057D02*
X103166666Y-81595295D01*
X103166666Y-81595295D02*
X103166666Y-81738152D01*
X103166666Y-81738152D02*
X103119047Y-81833390D01*
X103119047Y-81833390D02*
X103071428Y-81881009D01*
X103071428Y-81881009D02*
X102976190Y-81928628D01*
X102976190Y-81928628D02*
X102595238Y-81928628D01*
X103595238Y-81881009D02*
X103928571Y-81881009D01*
X104071428Y-82404819D02*
X103595238Y-82404819D01*
X103595238Y-82404819D02*
X103595238Y-81404819D01*
X103595238Y-81404819D02*
X104071428Y-81404819D01*
X104833333Y-81881009D02*
X104500000Y-81881009D01*
X104500000Y-82404819D02*
X104500000Y-81404819D01*
X104500000Y-81404819D02*
X104976190Y-81404819D01*
X105500000Y-81404819D02*
X105500000Y-81642914D01*
X105261905Y-81547676D02*
X105500000Y-81642914D01*
X105500000Y-81642914D02*
X105738095Y-81547676D01*
X105357143Y-81833390D02*
X105500000Y-81642914D01*
X105500000Y-81642914D02*
X105642857Y-81833390D01*
X106261905Y-81404819D02*
X106261905Y-81642914D01*
X106023810Y-81547676D02*
X106261905Y-81642914D01*
X106261905Y-81642914D02*
X106500000Y-81547676D01*
X106119048Y-81833390D02*
X106261905Y-81642914D01*
X106261905Y-81642914D02*
X106404762Y-81833390D01*
X103166666Y-12404819D02*
X102833333Y-11928628D01*
X102595238Y-12404819D02*
X102595238Y-11404819D01*
X102595238Y-11404819D02*
X102976190Y-11404819D01*
X102976190Y-11404819D02*
X103071428Y-11452438D01*
X103071428Y-11452438D02*
X103119047Y-11500057D01*
X103119047Y-11500057D02*
X103166666Y-11595295D01*
X103166666Y-11595295D02*
X103166666Y-11738152D01*
X103166666Y-11738152D02*
X103119047Y-11833390D01*
X103119047Y-11833390D02*
X103071428Y-11881009D01*
X103071428Y-11881009D02*
X102976190Y-11928628D01*
X102976190Y-11928628D02*
X102595238Y-11928628D01*
X103595238Y-11881009D02*
X103928571Y-11881009D01*
X104071428Y-12404819D02*
X103595238Y-12404819D01*
X103595238Y-12404819D02*
X103595238Y-11404819D01*
X103595238Y-11404819D02*
X104071428Y-11404819D01*
X104833333Y-11881009D02*
X104500000Y-11881009D01*
X104500000Y-12404819D02*
X104500000Y-11404819D01*
X104500000Y-11404819D02*
X104976190Y-11404819D01*
X105500000Y-11404819D02*
X105500000Y-11642914D01*
X105261905Y-11547676D02*
X105500000Y-11642914D01*
X105500000Y-11642914D02*
X105738095Y-11547676D01*
X105357143Y-11833390D02*
X105500000Y-11642914D01*
X105500000Y-11642914D02*
X105642857Y-11833390D01*
X106261905Y-11404819D02*
X106261905Y-11642914D01*
X106023810Y-11547676D02*
X106261905Y-11642914D01*
X106261905Y-11642914D02*
X106500000Y-11547676D01*
X106119048Y-11833390D02*
X106261905Y-11642914D01*
X106261905Y-11642914D02*
X106404762Y-11833390D01*
X66226667Y-62613200D02*
X66369524Y-62660819D01*
X66369524Y-62660819D02*
X66607619Y-62660819D01*
X66607619Y-62660819D02*
X66702857Y-62613200D01*
X66702857Y-62613200D02*
X66750476Y-62565580D01*
X66750476Y-62565580D02*
X66798095Y-62470342D01*
X66798095Y-62470342D02*
X66798095Y-62375104D01*
X66798095Y-62375104D02*
X66750476Y-62279866D01*
X66750476Y-62279866D02*
X66702857Y-62232247D01*
X66702857Y-62232247D02*
X66607619Y-62184628D01*
X66607619Y-62184628D02*
X66417143Y-62137009D01*
X66417143Y-62137009D02*
X66321905Y-62089390D01*
X66321905Y-62089390D02*
X66274286Y-62041771D01*
X66274286Y-62041771D02*
X66226667Y-61946533D01*
X66226667Y-61946533D02*
X66226667Y-61851295D01*
X66226667Y-61851295D02*
X66274286Y-61756057D01*
X66274286Y-61756057D02*
X66321905Y-61708438D01*
X66321905Y-61708438D02*
X66417143Y-61660819D01*
X66417143Y-61660819D02*
X66655238Y-61660819D01*
X66655238Y-61660819D02*
X66798095Y-61708438D01*
X67131429Y-61660819D02*
X67369524Y-62660819D01*
X67369524Y-62660819D02*
X67560000Y-61946533D01*
X67560000Y-61946533D02*
X67750476Y-62660819D01*
X67750476Y-62660819D02*
X67988572Y-61660819D01*
X68321905Y-61756057D02*
X68369524Y-61708438D01*
X68369524Y-61708438D02*
X68464762Y-61660819D01*
X68464762Y-61660819D02*
X68702857Y-61660819D01*
X68702857Y-61660819D02*
X68798095Y-61708438D01*
X68798095Y-61708438D02*
X68845714Y-61756057D01*
X68845714Y-61756057D02*
X68893333Y-61851295D01*
X68893333Y-61851295D02*
X68893333Y-61946533D01*
X68893333Y-61946533D02*
X68845714Y-62089390D01*
X68845714Y-62089390D02*
X68274286Y-62660819D01*
X68274286Y-62660819D02*
X68893333Y-62660819D01*
X47176667Y-62613200D02*
X47319524Y-62660819D01*
X47319524Y-62660819D02*
X47557619Y-62660819D01*
X47557619Y-62660819D02*
X47652857Y-62613200D01*
X47652857Y-62613200D02*
X47700476Y-62565580D01*
X47700476Y-62565580D02*
X47748095Y-62470342D01*
X47748095Y-62470342D02*
X47748095Y-62375104D01*
X47748095Y-62375104D02*
X47700476Y-62279866D01*
X47700476Y-62279866D02*
X47652857Y-62232247D01*
X47652857Y-62232247D02*
X47557619Y-62184628D01*
X47557619Y-62184628D02*
X47367143Y-62137009D01*
X47367143Y-62137009D02*
X47271905Y-62089390D01*
X47271905Y-62089390D02*
X47224286Y-62041771D01*
X47224286Y-62041771D02*
X47176667Y-61946533D01*
X47176667Y-61946533D02*
X47176667Y-61851295D01*
X47176667Y-61851295D02*
X47224286Y-61756057D01*
X47224286Y-61756057D02*
X47271905Y-61708438D01*
X47271905Y-61708438D02*
X47367143Y-61660819D01*
X47367143Y-61660819D02*
X47605238Y-61660819D01*
X47605238Y-61660819D02*
X47748095Y-61708438D01*
X48081429Y-61660819D02*
X48319524Y-62660819D01*
X48319524Y-62660819D02*
X48510000Y-61946533D01*
X48510000Y-61946533D02*
X48700476Y-62660819D01*
X48700476Y-62660819D02*
X48938572Y-61660819D01*
X49224286Y-61660819D02*
X49843333Y-61660819D01*
X49843333Y-61660819D02*
X49510000Y-62041771D01*
X49510000Y-62041771D02*
X49652857Y-62041771D01*
X49652857Y-62041771D02*
X49748095Y-62089390D01*
X49748095Y-62089390D02*
X49795714Y-62137009D01*
X49795714Y-62137009D02*
X49843333Y-62232247D01*
X49843333Y-62232247D02*
X49843333Y-62470342D01*
X49843333Y-62470342D02*
X49795714Y-62565580D01*
X49795714Y-62565580D02*
X49748095Y-62613200D01*
X49748095Y-62613200D02*
X49652857Y-62660819D01*
X49652857Y-62660819D02*
X49367143Y-62660819D01*
X49367143Y-62660819D02*
X49271905Y-62613200D01*
X49271905Y-62613200D02*
X49224286Y-62565580D01*
X85276667Y-62613200D02*
X85419524Y-62660819D01*
X85419524Y-62660819D02*
X85657619Y-62660819D01*
X85657619Y-62660819D02*
X85752857Y-62613200D01*
X85752857Y-62613200D02*
X85800476Y-62565580D01*
X85800476Y-62565580D02*
X85848095Y-62470342D01*
X85848095Y-62470342D02*
X85848095Y-62375104D01*
X85848095Y-62375104D02*
X85800476Y-62279866D01*
X85800476Y-62279866D02*
X85752857Y-62232247D01*
X85752857Y-62232247D02*
X85657619Y-62184628D01*
X85657619Y-62184628D02*
X85467143Y-62137009D01*
X85467143Y-62137009D02*
X85371905Y-62089390D01*
X85371905Y-62089390D02*
X85324286Y-62041771D01*
X85324286Y-62041771D02*
X85276667Y-61946533D01*
X85276667Y-61946533D02*
X85276667Y-61851295D01*
X85276667Y-61851295D02*
X85324286Y-61756057D01*
X85324286Y-61756057D02*
X85371905Y-61708438D01*
X85371905Y-61708438D02*
X85467143Y-61660819D01*
X85467143Y-61660819D02*
X85705238Y-61660819D01*
X85705238Y-61660819D02*
X85848095Y-61708438D01*
X86181429Y-61660819D02*
X86419524Y-62660819D01*
X86419524Y-62660819D02*
X86610000Y-61946533D01*
X86610000Y-61946533D02*
X86800476Y-62660819D01*
X86800476Y-62660819D02*
X87038572Y-61660819D01*
X87943333Y-62660819D02*
X87371905Y-62660819D01*
X87657619Y-62660819D02*
X87657619Y-61660819D01*
X87657619Y-61660819D02*
X87562381Y-61803676D01*
X87562381Y-61803676D02*
X87467143Y-61898914D01*
X87467143Y-61898914D02*
X87371905Y-61946533D01*
X28126667Y-62613200D02*
X28269524Y-62660819D01*
X28269524Y-62660819D02*
X28507619Y-62660819D01*
X28507619Y-62660819D02*
X28602857Y-62613200D01*
X28602857Y-62613200D02*
X28650476Y-62565580D01*
X28650476Y-62565580D02*
X28698095Y-62470342D01*
X28698095Y-62470342D02*
X28698095Y-62375104D01*
X28698095Y-62375104D02*
X28650476Y-62279866D01*
X28650476Y-62279866D02*
X28602857Y-62232247D01*
X28602857Y-62232247D02*
X28507619Y-62184628D01*
X28507619Y-62184628D02*
X28317143Y-62137009D01*
X28317143Y-62137009D02*
X28221905Y-62089390D01*
X28221905Y-62089390D02*
X28174286Y-62041771D01*
X28174286Y-62041771D02*
X28126667Y-61946533D01*
X28126667Y-61946533D02*
X28126667Y-61851295D01*
X28126667Y-61851295D02*
X28174286Y-61756057D01*
X28174286Y-61756057D02*
X28221905Y-61708438D01*
X28221905Y-61708438D02*
X28317143Y-61660819D01*
X28317143Y-61660819D02*
X28555238Y-61660819D01*
X28555238Y-61660819D02*
X28698095Y-61708438D01*
X29031429Y-61660819D02*
X29269524Y-62660819D01*
X29269524Y-62660819D02*
X29460000Y-61946533D01*
X29460000Y-61946533D02*
X29650476Y-62660819D01*
X29650476Y-62660819D02*
X29888572Y-61660819D01*
X30698095Y-61994152D02*
X30698095Y-62660819D01*
X30460000Y-61613200D02*
X30221905Y-62327485D01*
X30221905Y-62327485D02*
X30840952Y-62327485D01*
X84804104Y-19273339D02*
X84804104Y-18797149D01*
X85089819Y-19368577D02*
X84089819Y-19035244D01*
X84089819Y-19035244D02*
X85089819Y-18701911D01*
X85089819Y-17844768D02*
X85089819Y-18416196D01*
X85089819Y-18130482D02*
X84089819Y-18130482D01*
X84089819Y-18130482D02*
X84232676Y-18225720D01*
X84232676Y-18225720D02*
X84327914Y-18320958D01*
X84327914Y-18320958D02*
X84375533Y-18416196D01*
%TO.C,SW2*%
D12*
X60575000Y-63095000D02*
X74545000Y-63095000D01*
X60575000Y-77065000D02*
X60575000Y-63095000D01*
X74545000Y-63095000D02*
X74545000Y-77065000D01*
X74545000Y-77065000D02*
X60575000Y-77065000D01*
%TO.C,SW3*%
X41525000Y-63095000D02*
X55495000Y-63095000D01*
X41525000Y-77065000D02*
X41525000Y-63095000D01*
X55495000Y-63095000D02*
X55495000Y-77065000D01*
X55495000Y-77065000D02*
X41525000Y-77065000D01*
%TO.C,SW1*%
X79625000Y-63095000D02*
X93595000Y-63095000D01*
X79625000Y-77065000D02*
X79625000Y-63095000D01*
X93595000Y-63095000D02*
X93595000Y-77065000D01*
X93595000Y-77065000D02*
X79625000Y-77065000D01*
%TO.C,SW4*%
X22475000Y-63095000D02*
X36445000Y-63095000D01*
X22475000Y-77065000D02*
X22475000Y-63095000D01*
X36445000Y-63095000D02*
X36445000Y-77065000D01*
X36445000Y-77065000D02*
X22475000Y-77065000D01*
%TO.C,A1*%
X34260000Y-21310000D02*
X34260000Y-23800000D01*
X34260000Y-23800000D02*
X35173520Y-23800000D01*
X34260000Y-25147939D02*
X34260000Y-23800000D01*
X34260000Y-27075000D02*
X34260000Y-26072061D01*
X34260000Y-27410000D02*
X35176000Y-27410000D01*
X34260000Y-35210000D02*
X35176000Y-35210000D01*
X34260000Y-35545000D02*
X34260000Y-27075000D01*
X34260000Y-36547939D02*
X34260000Y-35545000D01*
X34260000Y-38820000D02*
X34260000Y-37472060D01*
X34260000Y-38820000D02*
X35173520Y-38820000D01*
X34260000Y-41310000D02*
X34260000Y-38820000D01*
X34680000Y-41889676D02*
X34680000Y-42400000D01*
X34680063Y-21040000D02*
X34323000Y-21040000D01*
X34680063Y-41580000D02*
X34323000Y-41580000D01*
X36800000Y-20700000D02*
X37220000Y-20700000D01*
X36800000Y-21040000D02*
X37220000Y-21040000D01*
X36800000Y-41580000D02*
X37220000Y-41580000D01*
X36800000Y-41920000D02*
X36800000Y-42400000D01*
X36800000Y-41920000D02*
X37220000Y-41920000D01*
X37564000Y-27410000D02*
X38780000Y-27410000D01*
X37564000Y-35210000D02*
X38780000Y-35210000D01*
X37566480Y-23800000D02*
X82173520Y-23800000D01*
X37566480Y-38820000D02*
X82173520Y-38820000D01*
X38780000Y-27706090D02*
X38780000Y-27410000D01*
X38780000Y-32556090D02*
X38780000Y-30063910D01*
X38780000Y-35210000D02*
X38780000Y-34913910D01*
X39340000Y-20700000D02*
X39760000Y-20700000D01*
X39340000Y-21040000D02*
X39760000Y-21040000D01*
X39340000Y-41580000D02*
X39760000Y-41580000D01*
X39340000Y-41920000D02*
X39760000Y-41920000D01*
X41880000Y-20700000D02*
X42300000Y-20700000D01*
X41880000Y-21040000D02*
X42300000Y-21040000D01*
X41880000Y-41580000D02*
X42300000Y-41580000D01*
X41880000Y-41920000D02*
X42300000Y-41920000D01*
X44420000Y-20700000D02*
X44840000Y-20700000D01*
X44420000Y-21040000D02*
X44840000Y-21040000D01*
X44420000Y-41580000D02*
X44840000Y-41580000D01*
X44420000Y-41920000D02*
X44840000Y-41920000D01*
X46960000Y-20700000D02*
X47380000Y-20700000D01*
X46960000Y-21040000D02*
X47380000Y-21040000D01*
X46960000Y-41580000D02*
X47380000Y-41580000D01*
X46960000Y-41920000D02*
X47380000Y-41920000D01*
X49500000Y-20700000D02*
X49920000Y-20700000D01*
X49500000Y-21040000D02*
X49920000Y-21040000D01*
X49500000Y-41580000D02*
X49920000Y-41580000D01*
X49500000Y-41920000D02*
X49920000Y-41920000D01*
X52040000Y-20700000D02*
X52460000Y-20700000D01*
X52040000Y-21040000D02*
X52460000Y-21040000D01*
X52040000Y-41580000D02*
X52460000Y-41580000D01*
X52040000Y-41920000D02*
X52460000Y-41920000D01*
X54580000Y-20700000D02*
X55000000Y-20700000D01*
X54580000Y-21040000D02*
X55000000Y-21040000D01*
X54580000Y-41580000D02*
X55000000Y-41580000D01*
X54580000Y-41920000D02*
X55000000Y-41920000D01*
X57120000Y-20700000D02*
X57540000Y-20700000D01*
X57120000Y-21040000D02*
X57540000Y-21040000D01*
X57120000Y-41580000D02*
X57540000Y-41580000D01*
X57120000Y-41920000D02*
X57540000Y-41920000D01*
X59660000Y-20700000D02*
X60080000Y-20700000D01*
X59660000Y-21040000D02*
X60080000Y-21040000D01*
X59660000Y-41580000D02*
X60080000Y-41580000D01*
X59660000Y-41920000D02*
X60080000Y-41920000D01*
X62200000Y-20700000D02*
X62620000Y-20700000D01*
X62200000Y-21040000D02*
X62620000Y-21040000D01*
X62200000Y-41580000D02*
X62620000Y-41580000D01*
X62200000Y-41920000D02*
X62620000Y-41920000D01*
X64740000Y-20700000D02*
X65160000Y-20700000D01*
X64740000Y-21040000D02*
X65160000Y-21040000D01*
X64740000Y-41580000D02*
X65160000Y-41580000D01*
X64740000Y-41920000D02*
X65160000Y-41920000D01*
X67280000Y-20700000D02*
X67700000Y-20700000D01*
X67280000Y-21040000D02*
X67700000Y-21040000D01*
X67280000Y-41580000D02*
X67700000Y-41580000D01*
X67280000Y-41920000D02*
X67700000Y-41920000D01*
X69820000Y-20700000D02*
X70240000Y-20700000D01*
X69820000Y-21040000D02*
X70240000Y-21040000D01*
X69820000Y-41580000D02*
X70240000Y-41580000D01*
X69820000Y-41920000D02*
X70240000Y-41920000D01*
X72360000Y-20700000D02*
X72780000Y-20700000D01*
X72360000Y-21040000D02*
X72780000Y-21040000D01*
X72360000Y-41580000D02*
X72780000Y-41580000D01*
X72360000Y-41920000D02*
X72780000Y-41920000D01*
X74900000Y-20700000D02*
X75320000Y-20700000D01*
X74900000Y-21040000D02*
X75320000Y-21040000D01*
X74900000Y-41580000D02*
X75320000Y-41580000D01*
X74900000Y-41920000D02*
X75320000Y-41920000D01*
X77440000Y-20700000D02*
X77860000Y-20700000D01*
X77440000Y-21040000D02*
X77860000Y-21040000D01*
X77440000Y-41580000D02*
X77860000Y-41580000D01*
X77440000Y-41920000D02*
X77860000Y-41920000D01*
X79980000Y-20700000D02*
X80400000Y-20700000D01*
X79980000Y-21040000D02*
X80400000Y-21040000D01*
X79980000Y-41580000D02*
X80400000Y-41580000D01*
X79980000Y-41920000D02*
X80400000Y-41920000D01*
X82520000Y-20700000D02*
X82940000Y-20700000D01*
X82520000Y-21040000D02*
X82940000Y-21040000D01*
X82520000Y-41580000D02*
X82940000Y-41580000D01*
X82520000Y-41920000D02*
X82940000Y-41920000D01*
X84566480Y-23800000D02*
X85480000Y-23800000D01*
X84566480Y-38820000D02*
X85480000Y-38820000D01*
X85059937Y-21040000D02*
X85417000Y-21040000D01*
X85059937Y-41580000D02*
X85417000Y-41580000D01*
X85480000Y-25147939D02*
X85480000Y-21310000D01*
X85480000Y-26072061D02*
X85480000Y-27710000D01*
X85480000Y-27710000D02*
X85480000Y-34910000D01*
X85480000Y-34910000D02*
X85480000Y-36547939D01*
X85480000Y-41310000D02*
X85480000Y-37472061D01*
X34260000Y-21310000D02*
G75*
G02*
X34680063Y-20730324I610000J0D01*
G01*
X34680000Y-41889676D02*
G75*
G02*
X34260000Y-41310000I190051J579692D01*
G01*
X85059937Y-20730324D02*
G75*
G02*
X85480069Y-21310000I-189837J-579676D01*
G01*
X85480000Y-41310000D02*
G75*
G02*
X85059937Y-41889676I-610002J1D01*
G01*
%TD*%
M02*
