M48
; DRILL file KiCad 10.0.3 date 2026-06-15T02:55:36
; FORMAT={-:-/ absolute / metric / decimal}
; #@! TF.CreationDate,2026-06-15T02:55:36-07:00
; #@! TF.GenerationSoftware,Kicad,Pcbnew,10.0.3
; #@! TF.FileFunction,Plated,1,2,PTH
FMAT,2
METRIC
; #@! TA.AperFunction,Plated,PTH,ComponentDrill
T1C1.000
; #@! TA.AperFunction,Plated,PTH,ComponentDrill
T2C1.500
%
G90
G05
T1
X35.74Y-22.42
X35.74Y-40.2
X38.28Y-22.42
X38.28Y-40.2
X40.82Y-22.42
X40.82Y-40.2
X43.36Y-22.42
X43.36Y-40.2
X45.9Y-22.42
X45.9Y-40.2
X48.44Y-22.42
X48.44Y-40.2
X50.98Y-22.42
X50.98Y-40.2
X53.52Y-22.42
X53.52Y-40.2
X56.06Y-22.42
X56.06Y-40.2
X58.6Y-22.42
X58.6Y-40.2
X61.14Y-22.42
X61.14Y-40.2
X63.68Y-22.42
X63.68Y-40.2
X66.22Y-22.42
X66.22Y-40.2
X68.76Y-22.42
X68.76Y-40.2
X71.3Y-22.42
X71.3Y-40.2
X73.84Y-22.42
X73.84Y-40.2
X76.38Y-22.42
X76.38Y-40.2
X78.92Y-22.42
X78.92Y-40.2
X81.46Y-22.42
X81.46Y-40.2
X84.0Y-22.42
X84.0Y-40.2
T2
X25.65Y-67.54
X32.0Y-65.0
X44.7Y-67.54
X51.05Y-65.0
X63.75Y-67.54
X70.1Y-65.0
X82.8Y-67.54
X89.15Y-65.0
M30
