%TF.GenerationSoftware,KiCad,Pcbnew,10.0.3*%
%TF.CreationDate,2026-06-19T14:02:30-07:00*%
%TF.ProjectId,macropad,6d616372-6f70-4616-942e-6b696361645f,rev?*%
%TF.SameCoordinates,Original*%
%TF.FileFunction,Legend,Bot*%
%TF.FilePolarity,Positive*%
%FSLAX46Y46*%
G04 Gerber Fmt 4.6, Leading zero omitted, Abs format (unit mm)*
G04 Created by KiCad (PCBNEW 10.0.3) date 2026-06-19 14:02:30*
%MOMM*%
%LPD*%
G01*
G04 APERTURE LIST*
%ADD10C,0.150000*%
%ADD11C,0.120000*%
G04 APERTURE END LIST*
D10*
X113365380Y-74758616D02*
X113365380Y-74282426D01*
X113079665Y-74853854D02*
X114079665Y-74520521D01*
X114079665Y-74520521D02*
X113079665Y-74187188D01*
X113079665Y-73330045D02*
X113079665Y-73901473D01*
X113079665Y-73615759D02*
X114079665Y-73615759D01*
X114079665Y-73615759D02*
X113936808Y-73710997D01*
X113936808Y-73710997D02*
X113841570Y-73806235D01*
X113841570Y-73806235D02*
X113793951Y-73901473D01*
%TO.C,A1*%
D11*
X113109548Y-97374953D02*
G75*
G02*
X112689485Y-96795277I189939J579677D01*
G01*
X112689485Y-76795277D02*
G75*
G02*
X113109570Y-76215667I609900J0D01*
G01*
X163909485Y-96795277D02*
G75*
G02*
X163489485Y-97374953I-610051J16D01*
G01*
X163489422Y-76215601D02*
G75*
G02*
X163909485Y-76795277I-189937J-579676D01*
G01*
X112689485Y-96795277D02*
X112689485Y-92957338D01*
X112689485Y-90395277D02*
X112689485Y-92033216D01*
X112689485Y-83195277D02*
X112689485Y-90395277D01*
X112689485Y-81557338D02*
X112689485Y-83195277D01*
X112689485Y-80633216D02*
X112689485Y-76795277D01*
X113109548Y-97065277D02*
X112752485Y-97065277D01*
X113109548Y-76525277D02*
X112752485Y-76525277D01*
X113603005Y-94305277D02*
X112689485Y-94305277D01*
X113603005Y-79285277D02*
X112689485Y-79285277D01*
X115649485Y-97405277D02*
X115229485Y-97405277D01*
X115649485Y-97065277D02*
X115229485Y-97065277D01*
X115649485Y-76525277D02*
X115229485Y-76525277D01*
X115649485Y-76185277D02*
X115229485Y-76185277D01*
X118189485Y-97405277D02*
X117769485Y-97405277D01*
X118189485Y-97065277D02*
X117769485Y-97065277D01*
X118189485Y-76525277D02*
X117769485Y-76525277D01*
X118189485Y-76185277D02*
X117769485Y-76185277D01*
X120729485Y-97405277D02*
X120309485Y-97405277D01*
X120729485Y-97065277D02*
X120309485Y-97065277D01*
X120729485Y-76525277D02*
X120309485Y-76525277D01*
X120729485Y-76185277D02*
X120309485Y-76185277D01*
X123269485Y-97405277D02*
X122849485Y-97405277D01*
X123269485Y-97065277D02*
X122849485Y-97065277D01*
X123269485Y-76525277D02*
X122849485Y-76525277D01*
X123269485Y-76185277D02*
X122849485Y-76185277D01*
X125809485Y-97405277D02*
X125389485Y-97405277D01*
X125809485Y-97065277D02*
X125389485Y-97065277D01*
X125809485Y-76525277D02*
X125389485Y-76525277D01*
X125809485Y-76185277D02*
X125389485Y-76185277D01*
X128349485Y-97405277D02*
X127929485Y-97405277D01*
X128349485Y-97065277D02*
X127929485Y-97065277D01*
X128349485Y-76525277D02*
X127929485Y-76525277D01*
X128349485Y-76185277D02*
X127929485Y-76185277D01*
X130889485Y-97405277D02*
X130469485Y-97405277D01*
X130889485Y-97065277D02*
X130469485Y-97065277D01*
X130889485Y-76525277D02*
X130469485Y-76525277D01*
X130889485Y-76185277D02*
X130469485Y-76185277D01*
X133429485Y-97405277D02*
X133009485Y-97405277D01*
X133429485Y-97065277D02*
X133009485Y-97065277D01*
X133429485Y-76525277D02*
X133009485Y-76525277D01*
X133429485Y-76185277D02*
X133009485Y-76185277D01*
X135969485Y-97405277D02*
X135549485Y-97405277D01*
X135969485Y-97065277D02*
X135549485Y-97065277D01*
X135969485Y-76525277D02*
X135549485Y-76525277D01*
X135969485Y-76185277D02*
X135549485Y-76185277D01*
X138509485Y-97405277D02*
X138089485Y-97405277D01*
X138509485Y-97065277D02*
X138089485Y-97065277D01*
X138509485Y-76525277D02*
X138089485Y-76525277D01*
X138509485Y-76185277D02*
X138089485Y-76185277D01*
X141049485Y-97405277D02*
X140629485Y-97405277D01*
X141049485Y-97065277D02*
X140629485Y-97065277D01*
X141049485Y-76525277D02*
X140629485Y-76525277D01*
X141049485Y-76185277D02*
X140629485Y-76185277D01*
X143589485Y-97405277D02*
X143169485Y-97405277D01*
X143589485Y-97065277D02*
X143169485Y-97065277D01*
X143589485Y-76525277D02*
X143169485Y-76525277D01*
X143589485Y-76185277D02*
X143169485Y-76185277D01*
X146129485Y-97405277D02*
X145709485Y-97405277D01*
X146129485Y-97065277D02*
X145709485Y-97065277D01*
X146129485Y-76525277D02*
X145709485Y-76525277D01*
X146129485Y-76185277D02*
X145709485Y-76185277D01*
X148669485Y-97405277D02*
X148249485Y-97405277D01*
X148669485Y-97065277D02*
X148249485Y-97065277D01*
X148669485Y-76525277D02*
X148249485Y-76525277D01*
X148669485Y-76185277D02*
X148249485Y-76185277D01*
X151209485Y-97405277D02*
X150789485Y-97405277D01*
X151209485Y-97065277D02*
X150789485Y-97065277D01*
X151209485Y-76525277D02*
X150789485Y-76525277D01*
X151209485Y-76185277D02*
X150789485Y-76185277D01*
X153749485Y-97405277D02*
X153329485Y-97405277D01*
X153749485Y-97065277D02*
X153329485Y-97065277D01*
X153749485Y-76525277D02*
X153329485Y-76525277D01*
X153749485Y-76185277D02*
X153329485Y-76185277D01*
X156289485Y-97405277D02*
X155869485Y-97405277D01*
X156289485Y-97065277D02*
X155869485Y-97065277D01*
X156289485Y-76525277D02*
X155869485Y-76525277D01*
X156289485Y-76185277D02*
X155869485Y-76185277D01*
X158829485Y-97405277D02*
X158409485Y-97405277D01*
X158829485Y-97065277D02*
X158409485Y-97065277D01*
X158829485Y-76525277D02*
X158409485Y-76525277D01*
X158829485Y-76185277D02*
X158409485Y-76185277D01*
X159389485Y-90695277D02*
X159389485Y-90399187D01*
X159389485Y-88041367D02*
X159389485Y-85549187D01*
X159389485Y-83191367D02*
X159389485Y-82895277D01*
X160603005Y-94305277D02*
X115995965Y-94305277D01*
X160603005Y-79285277D02*
X115995965Y-79285277D01*
X160605485Y-90695277D02*
X159389485Y-90695277D01*
X160605485Y-82895277D02*
X159389485Y-82895277D01*
X161369485Y-97405277D02*
X160949485Y-97405277D01*
X161369485Y-97405277D02*
X161369485Y-97885277D01*
X161369485Y-97065277D02*
X160949485Y-97065277D01*
X161369485Y-76525277D02*
X160949485Y-76525277D01*
X161369485Y-76185277D02*
X160949485Y-76185277D01*
X163489422Y-97065277D02*
X163846485Y-97065277D01*
X163489422Y-76525277D02*
X163846485Y-76525277D01*
X163489485Y-97374953D02*
X163489485Y-97885277D01*
X163909485Y-96795277D02*
X163909485Y-94305277D01*
X163909485Y-94305277D02*
X162995965Y-94305277D01*
X163909485Y-94305277D02*
X163909485Y-92957337D01*
X163909485Y-92033216D02*
X163909485Y-91030277D01*
X163909485Y-91030277D02*
X163909485Y-82560277D01*
X163909485Y-90695277D02*
X162993485Y-90695277D01*
X163909485Y-82895277D02*
X162993485Y-82895277D01*
X163909485Y-82560277D02*
X163909485Y-81557338D01*
X163909485Y-80633216D02*
X163909485Y-79285277D01*
X163909485Y-79285277D02*
X162995965Y-79285277D01*
X163909485Y-76795277D02*
X163909485Y-79285277D01*
%TD*%
M02*
