%TF.GenerationSoftware,KiCad,Pcbnew,10.0.3*%
%TF.CreationDate,2026-06-19T14:02:30-07:00*%
%TF.ProjectId,macropad,6d616372-6f70-4616-942e-6b696361645f,rev?*%
%TF.SameCoordinates,Original*%
%TF.FileFunction,Copper,L1,Top*%
%TF.FilePolarity,Positive*%
%FSLAX46Y46*%
G04 Gerber Fmt 4.6, Leading zero omitted, Abs format (unit mm)*
G04 Created by KiCad (PCBNEW 10.0.3) date 2026-06-19 14:02:30*
%MOMM*%
%LPD*%
G01*
G04 APERTURE LIST*
G04 Aperture macros list*
%AMRoundRect*
0 Rectangle with rounded corners*
0 $1 Rounding radius*
0 $2 $3 $4 $5 $6 $7 $8 $9 X,Y pos of 4 corners*
0 Add a 4 corners polygon primitive as box body*
4,1,4,$2,$3,$4,$5,$6,$7,$8,$9,$2,$3,0*
0 Add four circle primitives for the rounded corners*
1,1,$1+$1,$2,$3*
1,1,$1+$1,$4,$5*
1,1,$1+$1,$6,$7*
1,1,$1+$1,$8,$9*
0 Add four rect primitives between the rounded corners*
20,1,$1+$1,$2,$3,$4,$5,0*
20,1,$1+$1,$4,$5,$6,$7,0*
20,1,$1+$1,$6,$7,$8,$9,0*
20,1,$1+$1,$8,$9,$2,$3,0*%
%AMFreePoly0*
4,1,37,0.000000,0.796148,0.078414,0.796148,0.232228,0.765552,0.377117,0.705537,0.507515,0.618408,0.618408,0.507515,0.705537,0.377117,0.765552,0.232228,0.796148,0.078414,0.796148,-0.078414,0.765552,-0.232228,0.705537,-0.377117,0.618408,-0.507515,0.507515,-0.618408,0.377117,-0.705537,0.232228,-0.765552,0.078414,-0.796148,0.000000,-0.796148,0.000000,-0.800000,-0.600000,-0.800000,
-0.603843,-0.796157,-0.639018,-0.796157,-0.711114,-0.766294,-0.766294,-0.711114,-0.796157,-0.639018,-0.796157,-0.603843,-0.800000,-0.600000,-0.800000,0.600000,-0.796157,0.603843,-0.796157,0.639018,-0.766294,0.711114,-0.711114,0.766294,-0.639018,0.796157,-0.603843,0.796157,-0.600000,0.800000,0.000000,0.800000,0.000000,0.796148,0.000000,0.796148,$1*%
%AMFreePoly1*
4,1,37,0.603843,0.796157,0.639018,0.796157,0.711114,0.766294,0.766294,0.711114,0.796157,0.639018,0.796157,0.603843,0.800000,0.600000,0.800000,-0.600000,0.796157,-0.603843,0.796157,-0.639018,0.766294,-0.711114,0.711114,-0.766294,0.639018,-0.796157,0.603843,-0.796157,0.600000,-0.800000,0.000000,-0.800000,0.000000,-0.796148,-0.078414,-0.796148,-0.232228,-0.765552,-0.377117,-0.705537,
-0.507515,-0.618408,-0.618408,-0.507515,-0.705537,-0.377117,-0.765552,-0.232228,-0.796148,-0.078414,-0.796148,0.078414,-0.765552,0.232228,-0.705537,0.377117,-0.618408,0.507515,-0.507515,0.618408,-0.377117,0.705537,-0.232228,0.765552,-0.078414,0.796148,0.000000,0.796148,0.000000,0.800000,0.600000,0.800000,0.603843,0.796157,0.603843,0.796157,$1*%
G04 Aperture macros list end*
%TA.AperFunction,ComponentPad*%
%ADD10C,2.200000*%
%TD*%
%TA.AperFunction,ComponentPad*%
%ADD11C,1.600000*%
%TD*%
%TA.AperFunction,ComponentPad*%
%ADD12FreePoly0,90.000000*%
%TD*%
%TA.AperFunction,ComponentPad*%
%ADD13FreePoly1,90.000000*%
%TD*%
%TA.AperFunction,ComponentPad*%
%ADD14RoundRect,0.200000X0.600000X-0.600000X0.600000X0.600000X-0.600000X0.600000X-0.600000X-0.600000X0*%
%TD*%
%TA.AperFunction,Conductor*%
%ADD15C,0.200000*%
%TD*%
G04 APERTURE END LIST*
D10*
%TO.P,SW4,2,2_2*%
%TO.N,GND*%
X83150000Y-123040000D03*
%TO.P,SW4,1,1_1*%
%TO.N,Net-(A1-GPIO15)*%
X89500000Y-120500000D03*
%TD*%
%TO.P,SW1,1,1_1*%
%TO.N,Net-(A1-GPIO12)*%
X146650000Y-120500000D03*
%TO.P,SW1,2,2_2*%
%TO.N,GND*%
X140300000Y-123040000D03*
%TD*%
%TO.P,SW3,1,1_1*%
%TO.N,Net-(A1-GPIO14)*%
X108550000Y-120500000D03*
%TO.P,SW3,2,2_2*%
%TO.N,GND*%
X102200000Y-123040000D03*
%TD*%
D11*
%TO.P,A1,40,VBUS_40*%
%TO.N,unconnected-(A1-VBUS-Pad40)*%
X162429485Y-77905277D03*
%TO.P,A1,39,VSYS_39*%
%TO.N,unconnected-(A1-VSYS-Pad39)*%
X159889485Y-77905277D03*
D12*
%TO.P,A1,38,GND_38*%
%TO.N,Net-(A1-GND-Pad13)*%
X157349485Y-77905277D03*
D11*
%TO.P,A1,37,3V3_EN_37*%
%TO.N,unconnected-(A1-3V3_EN-Pad37)*%
X154809485Y-77905277D03*
%TO.P,A1,36,3V3_36*%
%TO.N,unconnected-(A1-3V3-Pad36)*%
X152269485Y-77905277D03*
%TO.P,A1,35,ADC_VREF_35*%
%TO.N,unconnected-(A1-ADC_VREF-Pad35)*%
X149729485Y-77905277D03*
%TO.P,A1,34,GPIO28_ADC2_34*%
%TO.N,unconnected-(A1-GPIO28_ADC2-Pad34)*%
X147189485Y-77905277D03*
D12*
%TO.P,A1,33,AGND_33*%
%TO.N,unconnected-(A1-AGND-Pad33)*%
X144649485Y-77905277D03*
D11*
%TO.P,A1,32,GPIO27_ADC1_32*%
%TO.N,unconnected-(A1-GPIO27_ADC1-Pad32)*%
X142109485Y-77905277D03*
%TO.P,A1,31,GPIO26_ADC0_31*%
%TO.N,unconnected-(A1-GPIO26_ADC0-Pad31)*%
X139569485Y-77905277D03*
%TO.P,A1,30,RUN_30*%
%TO.N,unconnected-(A1-RUN-Pad30)*%
X137029485Y-77905277D03*
%TO.P,A1,29,GPIO22_29*%
%TO.N,unconnected-(A1-GPIO22-Pad29)*%
X134489485Y-77905277D03*
D12*
%TO.P,A1,28,GND_28*%
%TO.N,Net-(A1-GND-Pad13)*%
X131949485Y-77905277D03*
D11*
%TO.P,A1,27,GPIO21_27*%
%TO.N,unconnected-(A1-GPIO21-Pad27)*%
X129409485Y-77905277D03*
%TO.P,A1,26,GPIO20_26*%
%TO.N,unconnected-(A1-GPIO20-Pad26)*%
X126869485Y-77905277D03*
%TO.P,A1,25,GPIO19_25*%
%TO.N,unconnected-(A1-GPIO19-Pad25)*%
X124329485Y-77905277D03*
%TO.P,A1,24,GPIO18_24*%
%TO.N,unconnected-(A1-GPIO18-Pad24)*%
X121789485Y-77905277D03*
D12*
%TO.P,A1,23,GND_23*%
%TO.N,Net-(A1-GND-Pad13)*%
X119249485Y-77905277D03*
D11*
%TO.P,A1,22,GPIO17_22*%
%TO.N,unconnected-(A1-GPIO17-Pad22)*%
X116709485Y-77905277D03*
%TO.P,A1,21,GPIO16_21*%
%TO.N,unconnected-(A1-GPIO16-Pad21)*%
X114169485Y-77905277D03*
%TO.P,A1,20,GPIO15_20*%
%TO.N,Net-(A1-GPIO15)*%
X114169485Y-95685277D03*
%TO.P,A1,19,GPIO14_19*%
%TO.N,Net-(A1-GPIO14)*%
X116709485Y-95685277D03*
D13*
%TO.P,A1,18,GND_18*%
%TO.N,Net-(A1-GND-Pad13)*%
X119249485Y-95685277D03*
D11*
%TO.P,A1,17,GPIO13_17*%
%TO.N,Net-(A1-GPIO13)*%
X121789485Y-95685277D03*
%TO.P,A1,16,GPIO12_16*%
%TO.N,Net-(A1-GPIO12)*%
X124329485Y-95685277D03*
%TO.P,A1,15,GPIO11_15*%
%TO.N,unconnected-(A1-GPIO11-Pad15)*%
X126869485Y-95685277D03*
%TO.P,A1,14,GPIO10_14*%
%TO.N,unconnected-(A1-GPIO10-Pad14)*%
X129409485Y-95685277D03*
D13*
%TO.P,A1,13,GND_13*%
%TO.N,Net-(A1-GND-Pad13)*%
X131949485Y-95685277D03*
D11*
%TO.P,A1,12,GPIO9_12*%
%TO.N,unconnected-(A1-GPIO9-Pad12)*%
X134489485Y-95685277D03*
%TO.P,A1,11,GPIO8_11*%
%TO.N,unconnected-(A1-GPIO8-Pad11)*%
X137029485Y-95685277D03*
%TO.P,A1,10,GPIO7_10*%
%TO.N,unconnected-(A1-GPIO7-Pad10)*%
X139569485Y-95685277D03*
%TO.P,A1,9,GPIO6_9*%
%TO.N,unconnected-(A1-GPIO6-Pad9)*%
X142109485Y-95685277D03*
D13*
%TO.P,A1,8,GND_8*%
%TO.N,Net-(A1-GND-Pad13)*%
X144649485Y-95685277D03*
D11*
%TO.P,A1,7,GPIO5_7*%
%TO.N,unconnected-(A1-GPIO5-Pad7)*%
X147189485Y-95685277D03*
%TO.P,A1,6,GPIO4_6*%
%TO.N,unconnected-(A1-GPIO4-Pad6)*%
X149729485Y-95685277D03*
%TO.P,A1,5,GPIO3_5*%
%TO.N,unconnected-(A1-GPIO3-Pad5)*%
X152269485Y-95685277D03*
%TO.P,A1,4,GPIO2_4*%
%TO.N,unconnected-(A1-GPIO2-Pad4)*%
X154809485Y-95685277D03*
D13*
%TO.P,A1,3,GND_3*%
%TO.N,Net-(A1-GND-Pad13)*%
X157349485Y-95685277D03*
D11*
%TO.P,A1,2,GPIO1_2*%
%TO.N,unconnected-(A1-GPIO1-Pad2)*%
X159889485Y-95685277D03*
D14*
%TO.P,A1,1,GPIO0_1*%
%TO.N,unconnected-(A1-GPIO0-Pad1)*%
X162429485Y-95685277D03*
%TD*%
D10*
%TO.P,SW2,2,2_2*%
%TO.N,GND*%
X121250000Y-123040000D03*
%TO.P,SW2,1,1_1*%
%TO.N,Net-(A1-GPIO13)*%
X127600000Y-120500000D03*
%TD*%
%TO.N,Net-(A1-GPIO12)*%
D15*
X146650000Y-118005792D02*
X124329485Y-95685277D01*
X146650000Y-120500000D02*
X146650000Y-118005792D01*
%TO.N,Net-(A1-GPIO13)*%
X121789485Y-112289485D02*
X121789485Y-95685277D01*
X127600000Y-118100000D02*
X121789485Y-112289485D01*
X127600000Y-120500000D02*
X127600000Y-118100000D01*
%TO.N,Net-(A1-GPIO14)*%
X116709485Y-112340515D02*
X116709485Y-95685277D01*
X108550000Y-120500000D02*
X116709485Y-112340515D01*
%TO.N,Net-(A1-GPIO15)*%
X114169485Y-95830515D02*
X114169485Y-95685277D01*
X89500000Y-120500000D02*
X114169485Y-95830515D01*
%TO.N,GND*%
X83150000Y-123040000D02*
X140300000Y-123040000D01*
%TD*%
M02*
