M48
; DRILL file KiCad 10.0.3 date 2026-06-19T14:02:52
; FORMAT={-:-/ absolute / metric / decimal}
; #@! TF.CreationDate,2026-06-19T14:02:52-07:00
; #@! TF.GenerationSoftware,Kicad,Pcbnew,10.0.3
; #@! TF.FileFunction,Plated,1,2,PTH
FMAT,2
METRIC
; #@! TA.AperFunction,Plated,PTH,ComponentDrill
T1C1.000
; #@! TA.AperFunction,Plated,PTH,ComponentDrill
T2C1.500
%
G90
G05
T1
X114.169Y-77.905
X114.169Y-95.685
X116.709Y-77.905
X116.709Y-95.685
X119.249Y-77.905
X119.249Y-95.685
X121.789Y-77.905
X121.789Y-95.685
X124.329Y-77.905
X124.329Y-95.685
X126.869Y-77.905
X126.869Y-95.685
X129.409Y-77.905
X129.409Y-95.685
X131.949Y-77.905
X131.949Y-95.685
X134.489Y-77.905
X134.489Y-95.685
X137.029Y-77.905
X137.029Y-95.685
X139.569Y-77.905
X139.569Y-95.685
X142.109Y-77.905
X142.109Y-95.685
X144.649Y-77.905
X144.649Y-95.685
X147.189Y-77.905
X147.189Y-95.685
X149.729Y-77.905
X149.729Y-95.685
X152.269Y-77.905
X152.269Y-95.685
X154.809Y-77.905
X154.809Y-95.685
X157.349Y-77.905
X157.349Y-95.685
X159.889Y-77.905
X159.889Y-95.685
X162.429Y-77.905
X162.429Y-95.685
T2
X83.15Y-123.04
X89.5Y-120.5
X102.2Y-123.04
X108.55Y-120.5
X121.25Y-123.04
X127.6Y-120.5
X140.3Y-123.04
X146.65Y-120.5
M30
