%TF.GenerationSoftware,KiCad,Pcbnew,10.0.3*%
%TF.CreationDate,2026-06-19T14:02:30-07:00*%
%TF.ProjectId,macropad,6d616372-6f70-4616-942e-6b696361645f,rev?*%
%TF.SameCoordinates,Original*%
%TF.FileFunction,Legend,Top*%
%TF.FilePolarity,Positive*%
%FSLAX46Y46*%
G04 Gerber Fmt 4.6, Leading zero omitted, Abs format (unit mm)*
G04 Created by KiCad (PCBNEW 10.0.3) date 2026-06-19 14:02:30*
%MOMM*%
%LPD*%
G01*
G04 APERTURE LIST*
%ADD10C,0.100000*%
%ADD11C,0.150000*%
%ADD12C,0.120000*%
G04 APERTURE END LIST*
D10*
X148000000Y-109500000D02*
X151500000Y-107000000D01*
X154000000Y-109500000D01*
X156000000Y-110000000D01*
X158000000Y-109500000D01*
X159292845Y-108230045D01*
X160000000Y-107500000D01*
X160000000Y-106500000D01*
X157719564Y-104163600D01*
X157501382Y-104047864D01*
X154000000Y-104000000D01*
X151500000Y-106500000D01*
X148000000Y-104000000D01*
X148000000Y-105000000D01*
X148000000Y-109500000D01*
G36*
X157501382Y-104047864D02*
G01*
X157719564Y-104163600D01*
X160000000Y-106500000D01*
X160000000Y-107500000D01*
X159292845Y-108230045D01*
X158000000Y-109500000D01*
X156000000Y-110000000D01*
X154000000Y-109500000D01*
X151500000Y-107000000D01*
X148000000Y-109500000D01*
X148000000Y-105000000D01*
X148000000Y-104000000D01*
X151500000Y-106500000D01*
X154000000Y-104000000D01*
X157501382Y-104047864D01*
G37*
X80500000Y-111000000D02*
X78000000Y-107500000D01*
X80500000Y-105000000D01*
X81000000Y-103000000D01*
X80500000Y-101000000D01*
X79230045Y-99707155D01*
X78500000Y-99000000D01*
X77500000Y-99000000D01*
X75163600Y-101280436D01*
X75047864Y-101498618D01*
X75000000Y-105000000D01*
X77500000Y-107500000D01*
X75000000Y-111000000D01*
X76000000Y-111000000D01*
X80500000Y-111000000D01*
G36*
X79230045Y-99707155D02*
G01*
X80500000Y-101000000D01*
X81000000Y-103000000D01*
X80500000Y-105000000D01*
X78000000Y-107500000D01*
X80500000Y-111000000D01*
X76000000Y-111000000D01*
X75000000Y-111000000D01*
X77500000Y-107500000D01*
X75000000Y-105000000D01*
X75047864Y-101498618D01*
X75163600Y-101280436D01*
X77500000Y-99000000D01*
X78500000Y-99000000D01*
X79230045Y-99707155D01*
G37*
X86001382Y-77547864D02*
X82501382Y-80047864D01*
X80001382Y-77547864D01*
X78001382Y-77047864D01*
X76001382Y-77547864D01*
X74708537Y-78817819D01*
X74001382Y-79547864D01*
X74001382Y-80547864D01*
X76281818Y-82884264D01*
X76500000Y-83000000D01*
X80001382Y-83047864D01*
X82501382Y-80547864D01*
X86001382Y-83047864D01*
X86001382Y-82047864D01*
X86001382Y-77547864D01*
G36*
X80001382Y-77547864D02*
G01*
X82501382Y-80047864D01*
X86001382Y-77547864D01*
X86001382Y-82047864D01*
X86001382Y-83047864D01*
X82501382Y-80547864D01*
X80001382Y-83047864D01*
X76500000Y-83000000D01*
X76281818Y-82884264D01*
X74001382Y-80547864D01*
X74001382Y-79547864D01*
X74708537Y-78817819D01*
X76001382Y-77547864D01*
X78001382Y-77047864D01*
X80001382Y-77547864D01*
G37*
D11*
X160666666Y-67804819D02*
X160333333Y-67328628D01*
X160095238Y-67804819D02*
X160095238Y-66804819D01*
X160095238Y-66804819D02*
X160476190Y-66804819D01*
X160476190Y-66804819D02*
X160571428Y-66852438D01*
X160571428Y-66852438D02*
X160619047Y-66900057D01*
X160619047Y-66900057D02*
X160666666Y-66995295D01*
X160666666Y-66995295D02*
X160666666Y-67138152D01*
X160666666Y-67138152D02*
X160619047Y-67233390D01*
X160619047Y-67233390D02*
X160571428Y-67281009D01*
X160571428Y-67281009D02*
X160476190Y-67328628D01*
X160476190Y-67328628D02*
X160095238Y-67328628D01*
X161095238Y-67281009D02*
X161428571Y-67281009D01*
X161571428Y-67804819D02*
X161095238Y-67804819D01*
X161095238Y-67804819D02*
X161095238Y-66804819D01*
X161095238Y-66804819D02*
X161571428Y-66804819D01*
X162333333Y-67281009D02*
X162000000Y-67281009D01*
X162000000Y-67804819D02*
X162000000Y-66804819D01*
X162000000Y-66804819D02*
X162476190Y-66804819D01*
X163000000Y-66804819D02*
X163000000Y-67042914D01*
X162761905Y-66947676D02*
X163000000Y-67042914D01*
X163000000Y-67042914D02*
X163238095Y-66947676D01*
X162857143Y-67233390D02*
X163000000Y-67042914D01*
X163000000Y-67042914D02*
X163142857Y-67233390D01*
X163761905Y-66804819D02*
X163761905Y-67042914D01*
X163523810Y-66947676D02*
X163761905Y-67042914D01*
X163761905Y-67042914D02*
X164000000Y-66947676D01*
X163619048Y-67233390D02*
X163761905Y-67042914D01*
X163761905Y-67042914D02*
X163904762Y-67233390D01*
X160666666Y-137804819D02*
X160333333Y-137328628D01*
X160095238Y-137804819D02*
X160095238Y-136804819D01*
X160095238Y-136804819D02*
X160476190Y-136804819D01*
X160476190Y-136804819D02*
X160571428Y-136852438D01*
X160571428Y-136852438D02*
X160619047Y-136900057D01*
X160619047Y-136900057D02*
X160666666Y-136995295D01*
X160666666Y-136995295D02*
X160666666Y-137138152D01*
X160666666Y-137138152D02*
X160619047Y-137233390D01*
X160619047Y-137233390D02*
X160571428Y-137281009D01*
X160571428Y-137281009D02*
X160476190Y-137328628D01*
X160476190Y-137328628D02*
X160095238Y-137328628D01*
X161095238Y-137281009D02*
X161428571Y-137281009D01*
X161571428Y-137804819D02*
X161095238Y-137804819D01*
X161095238Y-137804819D02*
X161095238Y-136804819D01*
X161095238Y-136804819D02*
X161571428Y-136804819D01*
X162333333Y-137281009D02*
X162000000Y-137281009D01*
X162000000Y-137804819D02*
X162000000Y-136804819D01*
X162000000Y-136804819D02*
X162476190Y-136804819D01*
X163000000Y-136804819D02*
X163000000Y-137042914D01*
X162761905Y-136947676D02*
X163000000Y-137042914D01*
X163000000Y-137042914D02*
X163238095Y-136947676D01*
X162857143Y-137233390D02*
X163000000Y-137042914D01*
X163000000Y-137042914D02*
X163142857Y-137233390D01*
X163761905Y-136804819D02*
X163761905Y-137042914D01*
X163523810Y-136947676D02*
X163761905Y-137042914D01*
X163761905Y-137042914D02*
X164000000Y-136947676D01*
X163619048Y-137233390D02*
X163761905Y-137042914D01*
X163761905Y-137042914D02*
X163904762Y-137233390D01*
X85626667Y-118113200D02*
X85769524Y-118160819D01*
X85769524Y-118160819D02*
X86007619Y-118160819D01*
X86007619Y-118160819D02*
X86102857Y-118113200D01*
X86102857Y-118113200D02*
X86150476Y-118065580D01*
X86150476Y-118065580D02*
X86198095Y-117970342D01*
X86198095Y-117970342D02*
X86198095Y-117875104D01*
X86198095Y-117875104D02*
X86150476Y-117779866D01*
X86150476Y-117779866D02*
X86102857Y-117732247D01*
X86102857Y-117732247D02*
X86007619Y-117684628D01*
X86007619Y-117684628D02*
X85817143Y-117637009D01*
X85817143Y-117637009D02*
X85721905Y-117589390D01*
X85721905Y-117589390D02*
X85674286Y-117541771D01*
X85674286Y-117541771D02*
X85626667Y-117446533D01*
X85626667Y-117446533D02*
X85626667Y-117351295D01*
X85626667Y-117351295D02*
X85674286Y-117256057D01*
X85674286Y-117256057D02*
X85721905Y-117208438D01*
X85721905Y-117208438D02*
X85817143Y-117160819D01*
X85817143Y-117160819D02*
X86055238Y-117160819D01*
X86055238Y-117160819D02*
X86198095Y-117208438D01*
X86531429Y-117160819D02*
X86769524Y-118160819D01*
X86769524Y-118160819D02*
X86960000Y-117446533D01*
X86960000Y-117446533D02*
X87150476Y-118160819D01*
X87150476Y-118160819D02*
X87388572Y-117160819D01*
X88198095Y-117494152D02*
X88198095Y-118160819D01*
X87960000Y-117113200D02*
X87721905Y-117827485D01*
X87721905Y-117827485D02*
X88340952Y-117827485D01*
X70666666Y-137804819D02*
X70333333Y-137328628D01*
X70095238Y-137804819D02*
X70095238Y-136804819D01*
X70095238Y-136804819D02*
X70476190Y-136804819D01*
X70476190Y-136804819D02*
X70571428Y-136852438D01*
X70571428Y-136852438D02*
X70619047Y-136900057D01*
X70619047Y-136900057D02*
X70666666Y-136995295D01*
X70666666Y-136995295D02*
X70666666Y-137138152D01*
X70666666Y-137138152D02*
X70619047Y-137233390D01*
X70619047Y-137233390D02*
X70571428Y-137281009D01*
X70571428Y-137281009D02*
X70476190Y-137328628D01*
X70476190Y-137328628D02*
X70095238Y-137328628D01*
X71095238Y-137281009D02*
X71428571Y-137281009D01*
X71571428Y-137804819D02*
X71095238Y-137804819D01*
X71095238Y-137804819D02*
X71095238Y-136804819D01*
X71095238Y-136804819D02*
X71571428Y-136804819D01*
X72333333Y-137281009D02*
X72000000Y-137281009D01*
X72000000Y-137804819D02*
X72000000Y-136804819D01*
X72000000Y-136804819D02*
X72476190Y-136804819D01*
X73000000Y-136804819D02*
X73000000Y-137042914D01*
X72761905Y-136947676D02*
X73000000Y-137042914D01*
X73000000Y-137042914D02*
X73238095Y-136947676D01*
X72857143Y-137233390D02*
X73000000Y-137042914D01*
X73000000Y-137042914D02*
X73142857Y-137233390D01*
X73761905Y-136804819D02*
X73761905Y-137042914D01*
X73523810Y-136947676D02*
X73761905Y-137042914D01*
X73761905Y-137042914D02*
X74000000Y-136947676D01*
X73619048Y-137233390D02*
X73761905Y-137042914D01*
X73761905Y-137042914D02*
X73904762Y-137233390D01*
X70666666Y-67804819D02*
X70333333Y-67328628D01*
X70095238Y-67804819D02*
X70095238Y-66804819D01*
X70095238Y-66804819D02*
X70476190Y-66804819D01*
X70476190Y-66804819D02*
X70571428Y-66852438D01*
X70571428Y-66852438D02*
X70619047Y-66900057D01*
X70619047Y-66900057D02*
X70666666Y-66995295D01*
X70666666Y-66995295D02*
X70666666Y-67138152D01*
X70666666Y-67138152D02*
X70619047Y-67233390D01*
X70619047Y-67233390D02*
X70571428Y-67281009D01*
X70571428Y-67281009D02*
X70476190Y-67328628D01*
X70476190Y-67328628D02*
X70095238Y-67328628D01*
X71095238Y-67281009D02*
X71428571Y-67281009D01*
X71571428Y-67804819D02*
X71095238Y-67804819D01*
X71095238Y-67804819D02*
X71095238Y-66804819D01*
X71095238Y-66804819D02*
X71571428Y-66804819D01*
X72333333Y-67281009D02*
X72000000Y-67281009D01*
X72000000Y-67804819D02*
X72000000Y-66804819D01*
X72000000Y-66804819D02*
X72476190Y-66804819D01*
X73000000Y-66804819D02*
X73000000Y-67042914D01*
X72761905Y-66947676D02*
X73000000Y-67042914D01*
X73000000Y-67042914D02*
X73238095Y-66947676D01*
X72857143Y-67233390D02*
X73000000Y-67042914D01*
X73000000Y-67042914D02*
X73142857Y-67233390D01*
X73761905Y-66804819D02*
X73761905Y-67042914D01*
X73523810Y-66947676D02*
X73761905Y-67042914D01*
X73761905Y-67042914D02*
X74000000Y-66947676D01*
X73619048Y-67233390D02*
X73761905Y-67042914D01*
X73761905Y-67042914D02*
X73904762Y-67233390D01*
X142776667Y-118113200D02*
X142919524Y-118160819D01*
X142919524Y-118160819D02*
X143157619Y-118160819D01*
X143157619Y-118160819D02*
X143252857Y-118113200D01*
X143252857Y-118113200D02*
X143300476Y-118065580D01*
X143300476Y-118065580D02*
X143348095Y-117970342D01*
X143348095Y-117970342D02*
X143348095Y-117875104D01*
X143348095Y-117875104D02*
X143300476Y-117779866D01*
X143300476Y-117779866D02*
X143252857Y-117732247D01*
X143252857Y-117732247D02*
X143157619Y-117684628D01*
X143157619Y-117684628D02*
X142967143Y-117637009D01*
X142967143Y-117637009D02*
X142871905Y-117589390D01*
X142871905Y-117589390D02*
X142824286Y-117541771D01*
X142824286Y-117541771D02*
X142776667Y-117446533D01*
X142776667Y-117446533D02*
X142776667Y-117351295D01*
X142776667Y-117351295D02*
X142824286Y-117256057D01*
X142824286Y-117256057D02*
X142871905Y-117208438D01*
X142871905Y-117208438D02*
X142967143Y-117160819D01*
X142967143Y-117160819D02*
X143205238Y-117160819D01*
X143205238Y-117160819D02*
X143348095Y-117208438D01*
X143681429Y-117160819D02*
X143919524Y-118160819D01*
X143919524Y-118160819D02*
X144110000Y-117446533D01*
X144110000Y-117446533D02*
X144300476Y-118160819D01*
X144300476Y-118160819D02*
X144538572Y-117160819D01*
X145443333Y-118160819D02*
X144871905Y-118160819D01*
X145157619Y-118160819D02*
X145157619Y-117160819D01*
X145157619Y-117160819D02*
X145062381Y-117303676D01*
X145062381Y-117303676D02*
X144967143Y-117398914D01*
X144967143Y-117398914D02*
X144871905Y-117446533D01*
X104676667Y-118113200D02*
X104819524Y-118160819D01*
X104819524Y-118160819D02*
X105057619Y-118160819D01*
X105057619Y-118160819D02*
X105152857Y-118113200D01*
X105152857Y-118113200D02*
X105200476Y-118065580D01*
X105200476Y-118065580D02*
X105248095Y-117970342D01*
X105248095Y-117970342D02*
X105248095Y-117875104D01*
X105248095Y-117875104D02*
X105200476Y-117779866D01*
X105200476Y-117779866D02*
X105152857Y-117732247D01*
X105152857Y-117732247D02*
X105057619Y-117684628D01*
X105057619Y-117684628D02*
X104867143Y-117637009D01*
X104867143Y-117637009D02*
X104771905Y-117589390D01*
X104771905Y-117589390D02*
X104724286Y-117541771D01*
X104724286Y-117541771D02*
X104676667Y-117446533D01*
X104676667Y-117446533D02*
X104676667Y-117351295D01*
X104676667Y-117351295D02*
X104724286Y-117256057D01*
X104724286Y-117256057D02*
X104771905Y-117208438D01*
X104771905Y-117208438D02*
X104867143Y-117160819D01*
X104867143Y-117160819D02*
X105105238Y-117160819D01*
X105105238Y-117160819D02*
X105248095Y-117208438D01*
X105581429Y-117160819D02*
X105819524Y-118160819D01*
X105819524Y-118160819D02*
X106010000Y-117446533D01*
X106010000Y-117446533D02*
X106200476Y-118160819D01*
X106200476Y-118160819D02*
X106438572Y-117160819D01*
X106724286Y-117160819D02*
X107343333Y-117160819D01*
X107343333Y-117160819D02*
X107010000Y-117541771D01*
X107010000Y-117541771D02*
X107152857Y-117541771D01*
X107152857Y-117541771D02*
X107248095Y-117589390D01*
X107248095Y-117589390D02*
X107295714Y-117637009D01*
X107295714Y-117637009D02*
X107343333Y-117732247D01*
X107343333Y-117732247D02*
X107343333Y-117970342D01*
X107343333Y-117970342D02*
X107295714Y-118065580D01*
X107295714Y-118065580D02*
X107248095Y-118113200D01*
X107248095Y-118113200D02*
X107152857Y-118160819D01*
X107152857Y-118160819D02*
X106867143Y-118160819D01*
X106867143Y-118160819D02*
X106771905Y-118113200D01*
X106771905Y-118113200D02*
X106724286Y-118065580D01*
X123726667Y-118113200D02*
X123869524Y-118160819D01*
X123869524Y-118160819D02*
X124107619Y-118160819D01*
X124107619Y-118160819D02*
X124202857Y-118113200D01*
X124202857Y-118113200D02*
X124250476Y-118065580D01*
X124250476Y-118065580D02*
X124298095Y-117970342D01*
X124298095Y-117970342D02*
X124298095Y-117875104D01*
X124298095Y-117875104D02*
X124250476Y-117779866D01*
X124250476Y-117779866D02*
X124202857Y-117732247D01*
X124202857Y-117732247D02*
X124107619Y-117684628D01*
X124107619Y-117684628D02*
X123917143Y-117637009D01*
X123917143Y-117637009D02*
X123821905Y-117589390D01*
X123821905Y-117589390D02*
X123774286Y-117541771D01*
X123774286Y-117541771D02*
X123726667Y-117446533D01*
X123726667Y-117446533D02*
X123726667Y-117351295D01*
X123726667Y-117351295D02*
X123774286Y-117256057D01*
X123774286Y-117256057D02*
X123821905Y-117208438D01*
X123821905Y-117208438D02*
X123917143Y-117160819D01*
X123917143Y-117160819D02*
X124155238Y-117160819D01*
X124155238Y-117160819D02*
X124298095Y-117208438D01*
X124631429Y-117160819D02*
X124869524Y-118160819D01*
X124869524Y-118160819D02*
X125060000Y-117446533D01*
X125060000Y-117446533D02*
X125250476Y-118160819D01*
X125250476Y-118160819D02*
X125488572Y-117160819D01*
X125821905Y-117256057D02*
X125869524Y-117208438D01*
X125869524Y-117208438D02*
X125964762Y-117160819D01*
X125964762Y-117160819D02*
X126202857Y-117160819D01*
X126202857Y-117160819D02*
X126298095Y-117208438D01*
X126298095Y-117208438D02*
X126345714Y-117256057D01*
X126345714Y-117256057D02*
X126393333Y-117351295D01*
X126393333Y-117351295D02*
X126393333Y-117446533D01*
X126393333Y-117446533D02*
X126345714Y-117589390D01*
X126345714Y-117589390D02*
X125774286Y-118160819D01*
X125774286Y-118160819D02*
X126393333Y-118160819D01*
%TO.C,SW4*%
D12*
X93945000Y-132565000D02*
X79975000Y-132565000D01*
X93945000Y-118595000D02*
X93945000Y-132565000D01*
X79975000Y-132565000D02*
X79975000Y-118595000D01*
X79975000Y-118595000D02*
X93945000Y-118595000D01*
%TO.C,SW1*%
X137125000Y-118595000D02*
X151095000Y-118595000D01*
X137125000Y-132565000D02*
X137125000Y-118595000D01*
X151095000Y-118595000D02*
X151095000Y-132565000D01*
X151095000Y-132565000D02*
X137125000Y-132565000D01*
%TO.C,SW3*%
X99025000Y-118595000D02*
X112995000Y-118595000D01*
X99025000Y-132565000D02*
X99025000Y-118595000D01*
X112995000Y-118595000D02*
X112995000Y-132565000D01*
X112995000Y-132565000D02*
X99025000Y-132565000D01*
%TO.C,SW2*%
X132045000Y-132565000D02*
X118075000Y-132565000D01*
X132045000Y-118595000D02*
X132045000Y-132565000D01*
X118075000Y-132565000D02*
X118075000Y-118595000D01*
X118075000Y-118595000D02*
X132045000Y-118595000D01*
%TD*%
M02*
